#!OML:ASF F:\VICON\USERDATA\INSTALL\rory3\rory3.ASF
:FULLY-SPECIFIED
:DEGREES
4473
root 5.20456 17.9234 -3.54617 1085.29 -36.3283 359.587
lowerback 11.5784 4.84712 0.444918
upperback 3.23197 6.25375 -3.97345
thorax -2.57412 3.0962 -5.22689
lowerneck -11.416 8.49706 -9.29722
upperneck 49.2798 13.7123 5.84371
head 20.1624 4.12694 7.02096
rclavicle -4.79071e-014 2.78299e-014
rhumerus -34.7039 -7.03859 -85.103
rradius 42.5354
rwrist 1.73709
rhand -18.3719 9.99528
rfingers 7.12502
rthumb 7.91142 -19.8367
lclavicle -4.79071e-014 2.78299e-014
lhumerus -35.1549 11.2402 65.9326
lradius 53.5362
lwrist -0.323253
lhand -19.1238 27.5148
lfingers 7.12502
lthumb 7.18565 57.3729
rfemur -6.52462 -4.33671 27.1143
rtibia 27.6134
rfoot -18.1994 -0.440914
rtoes 4.74743
lfemur -25.0636 -8.51721 -14.9811
ltibia 20.0033
lfoot 1.78269 -23.1236
ltoes 0.0604165
4474
root 5.27112 17.9221 -3.62026 1085.29 -36.0289 359.518
lowerback 11.7361 4.83708 0.600916
upperback 3.26616 6.25891 -3.90571
thorax -2.61461 3.09808 -5.2572
lowerneck -11.3733 8.47094 -9.33749
upperneck 49.2833 13.6912 5.83389
head 20.154 4.1155 7.0175
rclavicle -9.6013e-014 3.10104e-014
rhumerus -34.7146 -6.76585 -84.9592
rradius 42.8949
rwrist 1.50244
rhand -18.3689 9.77206
rfingers 7.12502
rthumb 7.91431 -20.0598
lclavicle -9.6013e-014 3.10104e-014
lhumerus -35.4143 11.5217 66.0692
lradius 53.0672
lwrist -0.2221
lhand -20.7756 26.2773
lfingers 7.12502
lthumb 5.59101 56.1835
rfemur -6.70135 -4.43614 27.1353
rtibia 27.373
rfoot -18.2199 -0.268257
rtoes 4.78224
lfemur -25.3232 -8.33203 -14.9636
ltibia 20.1391
lfoot 1.43628 -23.2928
ltoes -3.11974
4475
root 5.33489 17.9213 -3.68857 1085.26 -35.7571 359.479
lowerback 11.8018 4.81922 0.667188
upperback 3.31895 6.24629 -3.81942
thorax -2.59914 3.09235 -5.2053
lowerneck -11.3599 8.45408 -9.35723
upperneck 49.335 13.7027 5.78959
head 20.1941 4.10713 7.00836
rclavicle -2.38542e-014 8.74653e-015
rhumerus -34.7198 -6.46247 -84.7839
rradius 43.18
rwrist 1.30811
rhand -18.4325 9.7177
rfingers 7.12502
rthumb 7.85291 -20.1164
lclavicle -2.38542e-014 8.74653e-015
lhumerus -35.694 11.8196 66.119
lradius 52.5375
lwrist -0.423357
lhand -21.0738 26.5417
lfingers 7.12502
lthumb 5.30306 56.4553
rfemur -6.88019 -4.48655 27.1438
rtibia 27.1685
rfoot -18.193 -0.146495
rtoes 5.02791
lfemur -25.5432 -8.30743 -14.9115
ltibia 20.4189
lfoot 1.22297 -23.1253
ltoes -6.18207
4476
root 5.4035 17.9229 -3.75491 1085.19 -35.394 359.485
lowerback 11.9331 4.77982 0.747602
upperback 3.41732 6.20518 -3.74988
thorax -2.57072 3.07298 -5.17909
lowerneck -11.5434 8.415 -9.35961
upperneck 49.4791 13.6853 5.82155
head 20.3538 4.0822 7.0636
rclavicle -3.79679e-014 3.65764e-014
rhumerus -34.6066 -6.21778 -84.6084
rradius 43.4576
rwrist 1.14634
rhand -18.5834 9.34227
rfingers 7.12502
rthumb 7.70728 -20.4973
lclavicle -3.79679e-014 3.65764e-014
lhumerus -35.9544 12.0009 66.2728
lradius 52.1561
lwrist -0.551332
lhand -19.6407 29.3684
lfingers 7.12502
lthumb 6.68672 59.2428
rfemur -7.05451 -4.65058 27.0664
rtibia 27.0069
rfoot -18.1661 0.15162
rtoes 6.47342
lfemur -25.7491 -8.658 -14.8259
ltibia 20.8843
lfoot 1.05954 -22.7275
ltoes -5.98291
4477
root 5.47557 17.9278 -3.82186 1085.14 -34.9798 359.437
lowerback 12.0463 4.68757 0.904681
upperback 3.50099 6.10656 -3.62289
thorax -2.55149 3.02481 -5.12705
lowerneck -11.6176 8.39167 -9.42459
upperneck 49.5665 13.709 5.79984
head 20.4373 4.06626 7.08838
rclavicle 2.26615e-014 -2.14687e-014
rhumerus -34.5391 -5.86539 -84.3646
rradius 43.7275
rwrist 0.956923
rhand -18.5622 9.19027
rfingers 7.12502
rthumb 7.72768 -20.6485
lclavicle 2.26615e-014 -2.14687e-014
lhumerus -36.3263 12.1 66.5736
lradius 51.7444
lwrist -0.419931
lhand -18.4409 31.1224
lfingers 7.12502
lthumb 7.84478 60.9569
rfemur -7.2101 -4.67407 27.0282
rtibia 26.8384
rfoot -18.264 0.399541
rtoes 9.54488
lfemur -25.9782 -9.29003 -14.6323
ltibia 21.6
lfoot 0.157137 -22.2845
ltoes -4.2128
4478
root 5.54712 17.9321 -3.88725 1085.06 -34.626 359.469
lowerback 12.1187 4.65198 1.01938
upperback 3.56057 6.07709 -3.5308
thorax -2.5294 3.01115 -5.09407
lowerneck -11.5414 8.33964 -9.47195
upperneck 49.5422 13.6623 5.73866
head 20.4112 4.04075 7.05085
rclavicle -4.96962e-014 2.46493e-014
rhumerus -34.5357 -5.75512 -84.0888
rradius 43.9461
rwrist 0.820302
rhand -18.4743 9.25489
rfingers 7.12502
rthumb 7.81254 -20.5808
lclavicle -4.96962e-014 2.46493e-014
lhumerus -36.5113 12.2312 66.8146
lradius 51.0559
lwrist -1.02522
lhand -17.2739 31.8795
lfingers 7.12502
lthumb 8.97101 61.6687
rfemur -7.39857 -4.77652 26.9574
rtibia 26.6806
rfoot -18.4011 0.346775
rtoes 10.504
lfemur -26.2218 -9.85725 -14.5431
ltibia 22.5955
lfoot -1.60013 -21.5588
ltoes -3.88186
4479
root 5.61859 17.9327 -3.95113 1085.01 -34.3466 359.428
lowerback 12.2731 4.64609 1.18763
upperback 3.5685 6.0915 -3.45157
thorax -2.59465 3.01692 -5.12135
lowerneck -11.3884 8.30089 -9.41813
upperneck 49.4793 13.602 5.64519
head 20.3509 4.03041 6.9671
rclavicle 6.77856e-014 -7.95139e-015
rhumerus -34.6173 -5.71527 -83.8685
rradius 44.1553
rwrist 0.758182
rhand -18.4631 9.26952
rfingers 7.12502
rthumb 7.82342 -20.5657
lclavicle 6.77856e-014 -7.95139e-015
lhumerus -36.7094 12.4158 66.8747
lradius 50.4366
lwrist -2.45541
lhand -16.6029 31.6941
lfingers 7.12502
lthumb 9.61849 61.4545
rfemur -7.58038 -4.9487 26.9628
rtibia 26.5021
rfoot -18.414 0.244453
rtoes 9.80314
lfemur -26.5001 -10.3833 -14.4059
ltibia 23.9362
lfoot -3.39042 -20.3351
ltoes -5.25254
4480
root 5.69219 17.9289 -4.0149 1085.03 -34.1335 359.245
lowerback 12.4977 4.64593 1.46137
upperback 3.4918 6.12712 -3.35825
thorax -2.77488 3.02952 -5.20779
lowerneck -11.1217 8.29022 -9.26349
upperneck 49.4538 13.536 5.55425
head 20.2946 4.03457 6.86142
rclavicle 7.95139e-016 -1.43125e-014
rhumerus -34.8212 -5.73415 -83.625
rradius 44.3164
rwrist 0.804966
rhand -18.0759 9.47703
rfingers 7.12502
rthumb 8.19707 -20.344
lclavicle 7.95139e-016 -1.43125e-014
lhumerus -37.0684 12.3069 67.0086
lradius 49.8596
lwrist -3.22793
lhand -17.1659 30.5336
lfingers 7.12502
lthumb 9.07531 60.3184
rfemur -7.75072 -4.98222 27.0951
rtibia 26.2718
rfoot -18.3219 0.243444
rtoes 10.1311
lfemur -26.8578 -10.9173 -14.1146
ltibia 25.6002
lfoot -5.27603 -18.9196
ltoes -8.24223
4481
root 5.76712 17.916 -4.07443 1085.04 -33.9789 359.098
lowerback 12.622 4.59859 1.53558
upperback 3.6341 6.0807 -3.16135
thorax -2.71208 3.00805 -5.0399
lowerneck -11.5365 8.27686 -9.43323
upperneck 49.531 13.6866 5.491
head 20.4527 4.03229 6.93313
rclavicle 6.12257e-014 -1.59028e-014
rhumerus -34.4978 -5.48932 -83.3213
rradius 44.4451
rwrist 0.865263
rhand -17.7067 9.38145
rfingers 7.12502
rthumb 8.5534 -20.4253
lclavicle 6.12257e-014 -1.59028e-014
lhumerus -37.1897 12.5371 67.5049
lradius 49.1824
lwrist -2.77638
lhand -17.3796 30.2237
lfingers 7.12502
lthumb 8.869 60.0173
rfemur -7.8553 -4.90482 27.1912
rtibia 26.0476
rfoot -18.2237 0.0894508
rtoes 10.3334
lfemur -27.2311 -11.427 -13.8678
ltibia 27.4129
lfoot -6.74533 -17.5063
ltoes -10.0824
